# xmcd
#
# Track frame offsets:
#	187
#	5767
#	25360
#	44187
#	63817
#	81952
#	101570
#	117840
#	139417
#	162657
#	187032
#	207517
#
# Disc length: 3115 seconds
#
# Revision: 1
# Processed by: cddbd v1.5.1PL0 Copyright (c) Steve Scherf et al.
# Submitted via: CDex 1.50Beta5
#
DISCID=b50c290c
DTITLE=森口博子 - happy happy blue
DYEAR=1997
DGENRE=Pop
TTITLE0=happy happy blue
TTITLE1=両手を広げて
TTITLE2=Someday Everyday
TTITLE3=0の本気
TTITLE4=もらったBath Salt
TTITLE5=Gin-Marriage
TTITLE6=Shocking Blue
TTITLE7=GIVE
TTITLE8=じゃあ
TTITLE9=だからここにいるんだね
TTITLE10=その胸の中でずっとずっと
TTITLE11=どんなときも どんなときでも
EXTD=
EXTT0=
EXTT1=
EXTT2=
EXTT3=
EXTT4=
EXTT5=
EXTT6=
EXTT7=
EXTT8=
EXTT9=
EXTT10=
EXTT11=
PLAYORDER=
